<svg width="16.611" height="17.816" xmlns="http://www.w3.org/2000/svg">
    <g fill="none" fill-rule="evenodd">
        <path fill="#412846" transform="matrix(.01821 0 0 .01821 -.801 -.2)" style="fill:#ba2bd2;fill-opacity:1;stroke-width:.988233;stroke-dasharray:none" d="M500.963 989.148V11L44 169.62l65.419 606.244z"/>
        <path fill="#4b314f" transform="matrix(.01821 0 0 .01821 -.801 -.2)" style="fill:#ba2bd2;fill-opacity:1;stroke:none;stroke-width:.988233;stroke-dasharray:none;stroke-opacity:1" d="M499 989.148V11l456.963 158.62-65.42 606.244z"/>
        <path fill="#412846" d="m1.453 13.747 6.87 3.742V.328L.305 3.11z"/>
        <path fill="#4b314f" transform="matrix(.01754 0 0 .01754 -.467 .135)" style="stroke:none;stroke-width:1.02596;stroke-dasharray:none;stroke-opacity:1" d="M890.544 775.864 499 989.148V11l456.963 158.62z"/>
        <path d="m10.261 8.097-.001-.004c.366.407.554.89.564 1.451.01.56-.178 1.151-.568 1.77.291-.226.628-.716 1.01-1.462.164 1.513-.448 2.662-1.841 3.45.445-.041 1.035-.334 1.768-.88-.782 1.882-2.22 2.875-4.312 2.98-2.023-.001-3.333-1.217-3.332-1.216a4.924 4.924 0 0 1-1.715-2.444c-.497-.543-.502-.601-.553-.818-.052-.217.032-.278.178-.49.097-.142.12-.346.07-.608-.124-.172-.195-.44-.214-.807 0-.177.118-.363.354-.56.236-.196.381-.347.434-.451.04-.057.055-.303.046-.738-.002-.427.235-.66.712-.697.715-.057 1.119-.595 1.343-.84.15-.163.372-.242.652-.243.393-.019.752.132 1.06.444.769-.04 1.556.167 2.354.616 1.134.674 1.753 1.403 1.857 2.185-.122 1.028-1.504 1.001-4.14-.081-1.379.39-2.057 1.237-2.034 2.54-.001 1.195.577 2.063 1.731 2.604-.562-.552-.802-1.016-.721-1.4 1.17 1.385 2.502 1.903 3.995 1.553-.658.023-1.18-.188-1.572-.638 1.01-.025 1.962-.493 2.86-1.41-.519.412-1.06.568-1.634.47 1.554-1.222 2.103-2.647 1.65-4.276Zm-2.82-.188a.228.228 0 1 0 0-.456.228.228 0 0 0 0 .456z" fill="#ba2bd2" style="stroke-width:.0175446" transform="translate(2.04 -1.897)"/>
    </g>
</svg>
