<svg width="16" height="15.662" xmlns="http://www.w3.org/2000/svg">
    <g fill="none" fill-rule="evenodd">
        <path fill="#412846" d="M7.317 15.662V0L0 2.54l1.047 9.707z"/>
        <path fill="#4b314f" d="M7.285 15.662V0l7.317 2.54-1.047 9.707z"/>
        <path d="m10.948 5.36-.001-.005c.334.372.505.814.515 1.325.009.511-.163 1.05-.52 1.616.267-.207.575-.654.922-1.335.15 1.38-.408 2.43-1.68 3.148.407-.037.946-.304 1.614-.803-.713 1.718-2.025 2.624-3.935 2.72-1.846-.001-3.042-1.11-3.041-1.11a4.493 4.493 0 0 1-1.565-2.23c-.454-.496-.458-.55-.505-.747-.047-.198.03-.254.162-.447.09-.13.11-.315.064-.555-.113-.156-.178-.402-.195-.736 0-.162.108-.332.324-.511.215-.18.347-.317.395-.412.037-.052.05-.277.043-.674-.003-.39.214-.602.65-.636.652-.051 1.02-.543 1.225-.766.137-.149.34-.221.595-.222.359-.017.686.12.968.405.701-.037 1.42.153 2.148.563 1.035.614 1.6 1.28 1.694 1.993-.11.939-1.372.914-3.777-.074-1.259.357-1.878 1.13-1.857 2.318-.001 1.091.527 1.884 1.58 2.378-.513-.504-.732-.928-.658-1.279 1.067 1.265 2.283 1.737 3.646 1.418-.6.021-1.077-.172-1.435-.583.921-.022 1.79-.45 2.61-1.287-.473.377-.968.519-1.491.43 1.418-1.116 1.92-2.416 1.505-3.903zm-2.574-.172a.208.208 0 1 0 0-.416.208.208 0 0 0 0 .416z" fill="#ba2bd2"/>
    </g>
</svg>
